/* XPM */
static char *ceb3ceb5ffd7466ae4c923bea62d9008t18lXBDDS6my2SVO[] = {
/* columns rows colors chars-per-pixel */
"15 45 150 2 ",
"   c None",
".  c #4E4934",
"X  c #524633",
"o  c #524733",
"O  c #524734",
"+  c #534734",
"@  c #524B34",
"#  c #524936",
"$  c #514B37",
"%  c #544D37",
"&  c #5A4D32",
"*  c #5C4F33",
"=  c #5E4F33",
"-  c #514D39",
";  c #524C38",
":  c #514E3A",
">  c #514F3B",
",  c #534E3B",
"<  c #564C3A",
"1  c #5A4F3E",
"2  c #5A5036",
"3  c #5E5034",
"4  c #5D5137",
"5  c #53503C",
"6  c #53503D",
"7  c #54523D",
"8  c #55523D",
"9  c #5D543B",
"0  c #5C523D",
"q  c #58543F",
"w  c #5F553D",
"e  c #625035",
"r  c #625334",
"t  c #645435",
"y  c #655536",
"u  c #61553A",
"i  c #61533D",
"p  c #62533D",
"a  c #60563D",
"s  c #65563E",
"d  c #685838",
"f  c #6C5839",
"g  c #6D593B",
"h  c #73603E",
"j  c #73613F",
"k  c #595641",
"l  c #5A5641",
"z  c #625741",
"x  c #675941",
"c  c #685941",
"v  c #6B5B43",
"b  c #635949",
"n  c #685E4E",
"m  c #685E4F",
"M  c #6F634A",
"N  c #6B674E",
"B  c #6D684F",
"V  c #766340",
"C  c #746349",
"Z  c #70644B",
"A  c #75644A",
"S  c #77664B",
"D  c #71654C",
"F  c #78664B",
"G  c #75684F",
"H  c #686655",
"J  c #6A6757",
"K  c #6D6951",
"L  c #6E6A52",
"P  c #6A6858",
"I  c #746550",
"U  c #706B52",
"Y  c #706C53",
"T  c #726A55",
"R  c #716D54",
"E  c #726D54",
"W  c #736F56",
"Q  c #716A5B",
"!  c #917A53",
"~  c #957E57",
"^  c #9E865D",
"/  c #9E865E",
"(  c #B18844",
")  c #B89359",
"_  c #C6994E",
"`  c #C89D54",
"'  c #E0AA4F",
"]  c #E6AE50",
"[  c #E6AE51",
"{  c #E6AF51",
"}  c #E6AF52",
"|  c #E7AF52",
" . c #E5AF55",
".. c #E6AF54",
"X. c #E7B053",
"o. c #E6B054",
"O. c #E7B054",
"+. c #E6B055",
"@. c #E7B055",
"#. c #E7B156",
"$. c #E7B157",
"%. c #E7B259",
"&. c #E7B45D",
"*. c #E8B258",
"=. c #E8B359",
"-. c #E9B45A",
";. c #E9B45B",
":. c #E8B45E",
">. c #EAB55E",
",. c #EAB65E",
"<. c #E3B365",
"1. c #E8B561",
"2. c #EAB761",
"3. c #E8B562",
"4. c #E8B665",
"5. c #E9B767",
"6. c #EAB862",
"7. c #EBB863",
"8. c #E9B867",
"9. c #ECB965",
"0. c #E9B868",
"q. c #EDBB69",
"w. c #EDBD6B",
"e. c #EABA6D",
"r. c #EEBE6D",
"t. c #EABD72",
"y. c #EBBE75",
"u. c #E3BD79",
"i. c #EEC06F",
"p. c #F1C477",
"a. c #F1C578",
"s. c #F1C579",
"d. c #F2C579",
"f. c #F2C77B",
"g. c #E5C180",
"h. c #E9C583",
"j. c #E9C584",
"k. c #F4CA81",
"l. c #F4CB81",
"z. c #F4CB82",
"x. c #F5CC83",
"c. c #F6CF87",
"v. c #F6CF88",
"b. c #F7CF88",
"n. c #F7D088",
"m. c #F7D089",
"M. c #F7D18A",
"N. c #F7D18B",
"B. c #F8D18B",
"V. c #F8D28C",
/* pixels */
"                              ",
"                              ",
"              [ 3.            ",
"            ' [ #.e.          ",
"            | | [ ,.          ",
"          | | q.6...e.        ",
"          ' -.l.d.#.4.        ",
"        | ] i.B.v.9.%.        ",
"        { | d.V.V.i.| t.      ",
"        ' -.f.V.V.f.O.q.      ",
"        [ ,.B.V.V.l.O.0.      ",
"        [ ,.n.V.V.x.*.1.      ",
"      ] | r.B.V.V.c.1.O.      ",
"      { | p.V.V.V.B.w.#.p.    ",
"      { | d.V.V.V.N.r.#.e.    ",
"      | -.x.V.V.V.V.d.#.5.    ",
"      [ >.b.V.V.V.V.z.#.5.    ",
"      ] :.b.V.V.V.V.z...<.    ",
"      ( ` g.j.j.j.j.u._ )     ",
"      e g ~ / / / / ! f I     ",
"      o X v F F S S s o n     ",
"      o X c A A S C i o n     ",
"      o X c A A A A i o b     ",
"    o o X c A A A A i o 1     ",
"    O o O c A A A A i o < Q   ",
"    > > ; z C D Z M 0 # , H   ",
"    > > : k K W W B 7 > 5 H   ",
"    > > : k W W W K 7 > > H   ",
"    > > > k L W W K 7 > > H   ",
"    > > > k W W W K 7 > > H   ",
"    > > 5 k W W W K 7 > > H   ",
"    > > > k L W W K 7 > > H   ",
"    5 > > k W W W K 5 5 5 H   ",
"    > > > k Y W W K 5 > > H   ",
"    > > > k Y W W K 5 > 5 H   ",
"    > > > k Y W W K 7 5 5 H   ",
"    > > > k W W W K 5 > : H   ",
"    > > > k Y W W K 7 5 > H   ",
"    > > > k W W W K 5 5 5 H   ",
"    > > > k Y W W K 5 > > H   ",
"    > 5 5 k W W W K 7 5 5 P   ",
"    2 @ . q K L L N 5 . % Y   ",
"    r 3 & u w w w 9 9 & 3 G   ",
"        d V V h j j h y y     ",
"                              "
};
