/* XPM */
static char *aa5423e41e1d40fd9fe7f8b80f5c6826CvhLyYLqgyBUIqji[] = {
/* columns rows colors chars-per-pixel */
"28 28 22 1 ",
"  c None",
". c #00FF00",
"X c #00FF00",
"o c #00FF00",
"O c #00FF00",
"+ c #00FF00",
"@ c #00FF00",
"# c #00FF00",
"$ c #00FF00",
"% c #00FF00",
"& c #00FF00",
"* c #00FF00",
"= c #00FF00",
"- c #00FF00",
"; c #00FF00",
": c #00FF00",
"> c #00FF00",
", c #00FF00",
"< c #00FF00",
"1 c #00FF00",
"2 c #00FF00",
"3 c white",
/* pixels */
"33333333333>;@@;>33333333333",
"33333333>oo#;11;$oo>33333333",
"3333331.$3333>>3333%X1333333",
"33333%o13333333333331O-33333",
"3333##3333333333333333--3333",
"333;#333333331133333333-:333",
"331.33333331133113333333*133",
"33.1333333133>>3113333331=33",
"3>@3333331333333332133333,<3",
"3.133331133333333331333333*3",
"3.333331333331133333133333*3",
"1o333313333333333333133333*1",
":%333313333333333333313333:>",
"%%;%>>;%>>;>3331>-:>>>>>-:--",
"::1>331>331333333>133333>1::",
":-333313333333333333313333-:",
"1&333322333333333333133333O1",
"3+33333133333>>33333133333X3",
"3=<33331133333333331333331@3",
"31=3333331333113331133333o13",
"33=1333333113333113333331@33",
"333+33333333111133333333.133",
"3331+333333333333333333o>333",
"3333>O3333333333333333o>3333",
"33333>O13333311333331.>33333",
"3333333$O1333>>333>oo3333333",
"333333331%O@#::@oo#133333333",
"3333333333331;;1333333333333",
};