/* XPM */
static char *ff2829dbea4d4b01dd85ebae74e9a5c3VjmpqvcYfxMi7wB2[] = {
/* columns rows colors chars-per-pixel */
"126 50 240 2 ",
"   c #030303",
".  c #0C0C0C",
"X  c #0B0205",
"o  c #151515",
"O  c #16151D",
"+  c #1A161E",
"@  c #1C1C1C",
"#  c #18161B",
"$  c #0F0E15",
"%  c #24161A",
"&  c #24261D",
"*  c #151D22",
"=  c #1C1B23",
"-  c #1C1F28",
";  c #211E26",
":  c #231E29",
">  c #2A1D22",
",  c #1C2228",
"<  c #0E2022",
"1  c #232323",
"2  c #24232B",
"3  c #29262E",
"4  c #2B2B2B",
"5  c #2B2624",
"6  c #342A2D",
"7  c #34272B",
"8  c #2E3127",
"9  c #34352E",
"0  c #2C2632",
"q  c #2C2B33",
"w  c #292934",
"e  c #342D33",
"r  c #3C2E33",
"t  c #332E3B",
"y  c #392F3A",
"u  c #312732",
"i  c #333333",
"p  c #3B3235",
"a  c #3A3C35",
"s  c #34333B",
"d  c #3D343B",
"f  c #3B3B3B",
"g  c #353935",
"h  c #1F251B",
"j  c #42363A",
"k  c #433A3C",
"l  c #493B3D",
"z  c #423436",
"x  c #4B3438",
"c  c #3F4038",
"v  c #47413C",
"b  c #6E4E37",
"n  c #353341",
"m  c #3B3643",
"M  c #3C3A43",
"N  c #3E3C4A",
"B  c #413642",
"V  c #453C44",
"C  c #4B3D43",
"Z  c #453D49",
"A  c #4A3E4A",
"S  c #523F43",
"D  c #444444",
"F  c #4B4245",
"G  c #44434B",
"H  c #4C434C",
"J  c #4B4B4B",
"K  c #4D4942",
"L  c #524345",
"P  c #53454B",
"I  c #534A4D",
"U  c #5A4B4D",
"Y  c #584846",
"T  c #5A514E",
"R  c #4D4551",
"E  c #4B4A52",
"W  c #484654",
"Q  c #524652",
"!  c #554B53",
"~  c #5B4D52",
"^  c #554E5A",
"/  c #5A4E5A",
"(  c #5A4556",
")  c #535353",
"_  c #5C5255",
"`  c #54525C",
"'  c #5C535B",
"]  c #5C5B5C",
"[  c #5C5955",
"{  c #65554B",
"}  c #644E55",
"|  c #625355",
" . c #695455",
".. c #655856",
"X. c #64555A",
"o. c #6B555A",
"O. c #645A5C",
"+. c #6B5B5C",
"@. c #6C5C55",
"#. c #735D5C",
"$. c #785C56",
"%. c #70534A",
"&. c #6C625E",
"*. c #686058",
"=. c #74625C",
"-. c #7A665B",
";. c #72614F",
":. c #565462",
">. c #5B5A63",
",. c #5E5967",
"<. c #625662",
"1. c #645B63",
"2. c #6C5D62",
"3. c #655E6B",
"4. c #735D63",
"5. c #6C6264",
"6. c #6C636B",
"7. c #646368",
"8. c #726364",
"9. c #7A6464",
"0. c #73656A",
"q. c #7A646B",
"w. c #75696B",
"e. c #7B6B6C",
"r. c #796A65",
"t. c #7E706F",
"y. c #6B6A74",
"u. c #696673",
"i. c #746B74",
"p. c #7C6C72",
"a. c #736B76",
"s. c #7E7274",
"d. c #74727C",
"f. c #7B747A",
"g. c #85665C",
"h. c #8D7157",
"j. c #836B65",
"k. c #836C6B",
"l. c #896B67",
"z. c #8C736C",
"x. c #87756A",
"c. c #967969",
"v. c #836D73",
"b. c #896D72",
"n. c #837374",
"m. c #8B7374",
"M. c #83757A",
"N. c #847A7C",
"B. c #8B7B7B",
"V. c #8A7877",
"C. c #947B73",
"Z. c #947C7D",
"A. c #977A75",
"S. c #916F65",
"D. c #A17D74",
"F. c #805F56",
"G. c #9D836B",
"H. c #8B827D",
"J. c #9C847B",
"K. c #998577",
"L. c #A2857C",
"P. c #A78979",
"I. c #A98874",
"U. c #797784",
"Y. c #817782",
"T. c #8C7C82",
"R. c #867B83",
"E. c #937D81",
"W. c #997C81",
"Q. c #8C8183",
"!. c #86858A",
"~. c #938483",
"^. c #9B8384",
"/. c #94848A",
"(. c #9A8B8B",
"). c #9A878A",
"_. c #8A8995",
"`. c #998B92",
"'. c #979295",
"]. c #A48B83",
"[. c #AB8D8A",
"{. c #A58986",
"}. c #B38D86",
"|. c #AC928C",
" X c #AB9586",
".X c #B39486",
"XX c #BB9B8C",
"oX c #B69789",
"OX c #A48C94",
"+X c #A89697",
"@X c #BB9C95",
"#X c #B49896",
"$X c #BBA397",
"%X c #B3A699",
"&X c #A59BA4",
"*X c #B59CA1",
"=X c #B6A6AA",
"-X c #B7ACB3",
";X c #BCB3B5",
":X c #AAA2A7",
">X c #9C9AA8",
",X c #C59C96",
"<X c #CB9392",
"1X c #C6A798",
"2X c #D4B49E",
"3X c #C8A793",
"4X c #CBAAA2",
"5X c #D3AEA6",
"6X c #CCB4A6",
"7X c #D6B5A2",
"8X c #D8B8A7",
"9X c #C8B5B9",
"0X c #DABAB3",
"qX c #E7ABAB",
"wX c #E6BAB7",
"eX c #F1BABB",
"rX c #DBC4B8",
"tX c #CCC8BC",
"yX c #E2C2AB",
"uX c #E9C7BA",
"iX c #F2C6BC",
"pX c #F3D2BC",
"aX c #CABEC2",
"sX c #EEBDC0",
"dX c #D4C7CB",
"fX c #EBCBC3",
"gX c #F5C9C5",
"hX c #E8D5C8",
"jX c #F6D7CA",
"kX c #FADCD5",
"lX c #EBDBD3",
"zX c #FFE4CD",
"xX c #F7E7D9",
"cX c #F7F0DE",
"vX c #F7ECE4",
"bX c #FCF4E4",
"nX c #FEFBEC",
"mX c #FCF5E8",
"MX c #FFFDF2",
"NX c #DDDBE9",
/* pixels */
"s q i M M s M G ` M n n N W ,.U.J G G E G q s G i k @ P p w.6 % k p p a z 6 d P 4 q 4 h 3 c f 4 g i 9 4 1 4 4 4 e 5 6 d 6 o % F D 4 , % 4 i q 4 & & & & 1 = = - # # @ @ h & ; 1 @ @ @ @ @ @ @ @ @ 1 h + 4 1   . = O = + = = = = O O O O * + * + # # @ @ @ @ ",
"` G G E W M M G w s W y.U.:.:.:.7.` E E G q 3 q k 6 [ k ) X 6 k F d p d d r a I f f i 4 4 i 2 o 4 4 4 4 q q 9 4 % # % k k i I M.) D g 4 1 h @ o & & & 1 1 , 1 - @ @ + h ; 1 1 1 @ + @ @ @ @ @ + o o o o . o @ @ + = + = = = = = = = = = = = = = @ @ @ @ @ o ",
"G m m G W E ` 7.d.:.N n n W :.U.>.E J E W G M G Y.[ 6.k s.I +.V ) l p k k p k I g D D D G ) J g g g g f g g i i r 1 > r 7 5 p O.v D g i 4 1 3 i 5 8 5 5 4 2 2 2 1 1 1 1 1 @ @ 1 @ 1 & @ @ @ = @ @   5 i . o 4 o - = = = + = = = ; ; - = = ; ; ; @ @ @ @ @ @ ",
"` G f N J ` u.!.W ` :.:.:.W W N >.W G E ` E ` ] p.Q.I O._ ;Xf.k O.H k k V k F ~ c J ) ) ] ] ) J H J J G D f i i F p p p 7 @ % e 2 e g i 4 4 g D 8 8 8 4 4 w 0 w 6 4 4 4 1 1 1 @ @ 1 @ , & @ 1 & @   ) 7.@ @ i   - ; = ; = = = = = = = = = = = = @ # @ # @ @ ",
"_.y.` E J J ] d.W W :.W :.:.,.:.d.7.` ` ` E E ` I 5._ N.H 5.D _ 5.I k F I P I _ ) ] 7.) D D f 8 D J G D c c g i p p k F C d p k i d c g 5 1 4 i 9 9 9 i 9 q q t i i i 4 4 1 1 1 1 1 1 1 1 1 1 1 1 . E w.h O g   2 ; 2 ; * = = = = O + = O = O = # @ @ @ @ @ ",
"d.>.E G N M W >.,.:.W n W u._.>Xy.7.7.,.>.E >.y.:XV ] Q.;Xk k 5.1.I F I [ [ ' X.) ] ] ) J ) ) J D f c c f M c D p p V F F F F F i i f f s g g f 9 a g g g g s s i i i q 4 4 1 1 1 1 1 1 1 1 1 1 1 . 4 g . # f 1 3 2 2 ; ; - = + O O O O O O O + @ @ @ @ o @ ",
"J M G ) ` J G E w W U.U._._.U.:.] >.7.7.>.` y.'.dX_ ) i.dXi.5.I O.J F [ 5.7.O.O.J ] [ J ) 7.!.'.7.] J D D D J J I F C k v J T I i g g f D J H D c c c a m d n n g g i i i 4 4 4 1 4 4 1 4 1 5 4 9 1 + o o # 4 9 3 2 2 2 - = = = = = = = = = = + @ @ @ @ @ @ ",
">.>.y.U.d.` M s W U.U.,.U.U.u.:.y.y.U.d.` J 3.!.O.Q._ 5.k Q.O.J [ F F X.i.w.1.O.] ] ) D D ] N.!.'.!.d.[ E J J J [ I F v ! 6.R.Q.7.` J J J D g 3 v c c c f M M M p i i i i i i i 4 1 4 1 4 4 2 5 i g 4 @ 9 4 # , w 3 2 2 ; = = + = = = = = = - = # @ @ o @ @ ",
"X.'.dX;Xs.I ) w.n m I I I U 6.N.p.| 0.j e.U w.<.T +XdX9XB.*...@.o.w.t.r.8.s.e...V 6.p.' / i.i./ s.O.T *.w.5.[ _ o.} ( <.E.OXW.a.X.! Q / / X.R.-Xd.J ] e 5.V ' V a.N : n Z t 0 M 3 F C 6 d &.[ e 1 p k p 6 7 7 4 3 2 , 2 3 0 2 2 2 3 3 w 3 2 1 - , 3 q w ; = ",
"5 D 5.5.I V I O.' 3.6.O.T J _ O.P e.0.~ C 0.e.4.@.H.+X(.e.+.| U n.V.s.&.&.t.n.t._ w.s.6.2.p.s.0.n.5.O.w.t.e.8.8.o.<.} } 4.E.a.} i.0.6.0.5.2.T.=X=X!.N.J y.) 7.I !.6.G B ' u.<.Z k I H p 6 k j 5 r k k p 5 1 > > q w 2 w q q q 3 2 2 , 2 1 - ; - - 2 0 2 = O ",
"7 6 p d k F I _ ! O.5.7.[ _ [ 1.C `.M.0.> p.X.P T ..+...&.8.8...8.w.8.+.+.r.e.8.| 2.0.0.8.8.8.q.=.*.@.r.r.r.r.t.} 4.4.4.4.v.q.} s.e.e.e.8.2.n.(.;X'.Q._ 8._ 5.[ Y.a.~ y / R.i.B V F v k d k k F 6 r j k d p p j s i q q s s s q 0 3 2 * = = - 2 - 2 2 2 - = ",
"I I F k V F F C k F ! _ ~ I ! _ P T.p.0.x 0.X.Q ..T U U ..8.8...Y | r.t.n.t.&...+. .#.e.q.+.8.v.=.*.-.r.r.*.-.x.o.k.b.b.b.W.W.b.k.n.n.v.w.q.v.B.+XH.t.O.&.O.5.*.i.2.U B ~ i.4.C 5._ F P I F F ~ F V F H F k k F M s t s m M s i s w 3 , = 2 0 q 2 q e q 2 = ",
"k V F F p i 6 6 K I _ I F k j p X.C o.~ M.X.w.0.e.r.8.=.+._ U Y ..&.s.~.(.H.n.t.k.j.k.C.m.j.z.^.C.z.C.K.A.x.z.J.j.W.[.W.W.W.[.W.Z.^.^.^.J.^.^.^.~.H.n.H.x.V.r.r.M.4.X.8.2.| X.e.&XN.X.[ [ F p e w._ I I F 6 5 6 M s s s M M s s M n q 4 2 0 s s 2 3 q q 2 = ",
"@ 7 k k k p j k F F F H J P H F M.C 2.~ ~.C o.+.+.+.5.e.r.&.&.e.s.r.r.t.n.t.n.~.j.l.m.l.k.l.m.A.L.C.C.K.J.C.C.K.W.#X,X}.[.}.#X}.^.[.|.].{.|.|.OXJ.|.K.+XV.^.r.r.Z.4.9.V.j.P | Z.'.N.5.] [ _ C p [ V p P P p p F M M s s M M M s M f s s i s s s ; 2 3 3 = = ",
"5 6 p k F F F F d k k l J ! [ X.p.0.0.o.<.L ~ X...Y T &.t.e.n.~.B.e.5.r.8...&.t.$.z.z.F.$.z.A.z.L.c.S.K.].P.D.D.}.,X,X*X*X4X,X}.#X@X@X[.|.@X@X|.^.%XK.%Xx. Xj.V.V.V.n.b.9.+.#.k.5.f.!.5._ 7.0.O.[ d p I [ F H ] G D M M G G G M M M s s s s s s 4 q i q 3 ; ",
"I F k k k k k e _ I C k k k k k r 8.~ 2.r M.p.T.~.&.U ..8.5.=.r.~.n.n.~.V.&.| +.g.{.{.g.g.L.}.A..XK.c.P.@X1X@X#X}.,X,X,X5XwXwX4X0XrX0X1X=X8X8X$X X$XJ.4XK.%XK.oXJ.|.{.j.j.W.Z.-.5.+X-XN._ 2.w.7./.5._ O.O.V p J E G G D E E E G s s s s s t t q s M N N s t ",
"p p k V v V k k F k k k k V V F U U P } <.X.U C =.O.....+.| L k #.o.#.4.q.q.q.v.m.{.l.#XC.4XP. X3XG.c.3X2X3X3XyX3XyXrXsXwXwXqXeXqXqXqXqXqXqX<X<XI.<X}.}.P.J.]. X[.A.z.Z.+X@X[.K.(.H.n.t.t.t.e.w.1.+.X.o.X.X._ ~ B + <.0 u Y.B 1.0 y A <.Q V A / / Z y u y B ",
"e r p k k k d p k k k k k C L J L C S P ~ U S j L &.&.U @.B.V...W.m.m.B.J.^.W.E.OX*X{.oX^.$X$X6X2X7XyXyX3XI.I.2X6XtXrXdXfXwXsXsXiXeXeXgXeXwXqX4X<XqX4X1X$X#X%X%X^.A.A.Z.[.|.^.H.(.~.B.n.n.n.e.r.p.p.p.6.X.~ X.+.<.6.dXT.3.U.u :.y B ^ 1.:.A Q 1.A B u u e y ",
"6 6 p p z p p p p p j k D F I _ C C C L U P C j l r.t.Y O.+X%Xn.V.b.k.e.n.m.k.8.4X*X*X{.oX X0XpXoX3X2X2X2X2XpXzXhXlXlXlXkXkXvXvXjXjXjXjXjXjXgXrXwXqXqX4X4X1X@XoX{.[.|.#X|.|.].L.(.(.H.~.~.(.~.H.~.~.R.p.+.} X.2.<.6.aX>Xa.U.y / B A Q 1.:.A Q <.B B e e y y ",
"e r p p p p p p d k k k C F I I I U ~ ~ } } ~ U U w.r.| &.).'.B.OX+X+X^.E.^.^.E.*XW.*XC.#XK.rXhXzXpX2X2XpXzXzXyXcXcXnXnXMXvXvXMXxXxXxXzXxXxXkXhXkXfXwX8X8X4X@X}.oX$X1X$X|.L.P.P.B.B.B.~.(.(.'.(.`.~.T.M.p.0.2.X.a.A 3.R ( U.S ( A B A / ( Z A :.Z A B B B Z ",
"p p p p p k j k F F k v D F F I ~ } X.X.X.X.X.o.+.| | &.8.8.t.H.Z.#X=X{.Z.m.W.^.W.b.OXA.$XC.8XpXzXpX2X2XpXzXzXpXvXvXmXmXvXvXMXMXnXbXcXbXbXbXcXcXxXkXfXfXfXuXwX4X@X1X1X$XP.G.G.I.B.N.s.n.V.H.B.V.~.M.p.M.R.M.2.P &Xu.<.V R <.Q <.R A A Q P B A / Z Z Z B Z Z ",
"d p p p p d k k H F F F C F F F P ~ ~ | / ~ X.2...l Y 8.r.| &.~.o.B.^.e.o.4.b.e.W.k.W.W.$XL.$XrXG.G..X2X3X3XyXzXkXmXMXMXMXMXMXMXnXnXnXbXnXnXcXcXzXkXlXjXkXxXkXkX6X7X6X$XXXP. X%X%X+X(.~.H.H.V.n.M.p.0.p.R.V.4.U R.Y.R.a.:.Q <.Y.' R A P R Z G / m Z C Z j m ",
"p p 6 6 6 p p k F F v V F F P I P U } ~ ~ ~ X.2.U { ..8.8...+.v.q.W.E.e.k.^.W.b.W.b.b.}.K.P.P.3XI.I.XX2XG.b h.3XlXkXmXMXnXmXvXvXbXbXcXxXcXxXxXhXtXrXhXfXiXeXgXgX6X2X3XXXXX%X1XyXtX;X+X(.~./.~.~.M.M.v.i.w.2.2.5.<.6.u.Y.i./ 6.Y.<.R Z Z A B Z Q Z A Q G B y ",
"6 6 7 4 7 6 p p k k V F F I ) _ U ~ X.X.~ ~ X.0.T e.n.&...8.8.|  .#.} S 4.W.m.} #XZ.o.[.j.K.j. X3XG.G.2X2XG.G.yX4X0XfXlXlXdXtXdXcXxXhXhXhXuXrXrX$X4X6X1X,XXX<X4XP.G.G.G.G. X3X2X=X+XH.N.V.~.~.).M.T.E.p.~ ~ 2.M.T.3.H 0.Y.3.3.! / Z y y m y d A A / / / A B ",
"4 9 i g g g s 4 V F k F F I I _ X.F [ 5.] w.N.6.+.2.2.0.w.p.M.R.v.0._ P X.0.X.j ^.m.l.z.C.S.x.G.}..X}.}.}.oX<X4XgX8X2XuXpXpXiXpXuX0X@X,XwXxXpX2XwX8XwXuX8XoXP.}.XXP.P.P.}.XX X XOX&XB./.aX=X).;X9X*X*XOX4.4.W.b.*XT.4.M.i./ Q 3.i.i.3.<.R A Q ^ Z Z A H H A ",
"4 4 e g g i i e p p p p k k F I H ! N.Q.5.O.w.7.w.0.4.0.v.n.0.X.X.8.0.2.2.p.4.~ b.#.@.=.-.-.-.-.g.g.S.S.S.S.I.P.2X,X3X2X8X7X7X8XuX8XXXP.oX,XI.F.1XoXoX5X8X1X<XoXXXP.L.D.].L.K.K.P T.&X+XM.~ / ~.T.4.T.).Y.v.Y.( o.4.6.4.0.a.<.Q / ' / Q H Q / <.A H R Q Q R ",
"4 9 q i i i i 4 k k k k V F I I I I w.f.5.] w.O.0.2.O.0.M.M.8.Q ~ 8.p.p.0.2.2.X.o.} Y { @.{ { ;.%.F.g.S.S.S.S.A..XP.XX3X3XXX,X2XI.I.G.c.c.I.h.F.g.%.%.l.D.A.S.F.I.c.z.c.h.H.H.x.~.R.R.0.S X.T./.E.4.E.*XW.W.W.Y.K 5.8.! X.f.a.Q H R Q H A Q ' <.Z Z G P S R ",
"4 4 4 i i i i i k k k k F J I I 2.D H O.X.w.d._ ~ ~ ~ 2.p.M.p.0.X.2.w.4.X.} ~ ~ 2.~ U X.&.;.;.;.F.g.z.c.z.l.z.z.L.L..XoX.XL..X1Xh.h.h.h.c.G.I.I.[.D.A.D.[.{.A.S.-.F.g.l.x.G.H.H.T.w.E./.w.T./.P OXY.W.OXY.v.W.W.H.H.8.I U 3.a.1.^ / ^ Q A Z G Q Z Z Z Z Z Z ",
"4 4 4 4 4 i i i e 6 6 p p p k C _ J 7.w.[ O.5.! L ~ X.X.X.+.p.T.p.2.} ~ | / } ~ <.~ ~ 2.r.*.;.*.$.-.l.l.g.$.#.$.z.C.K.L.K.C.J.oXI.G.K.G.c.h.K. Xl.l.l.9.@.%.v x %.#.-.r.t.t.x.N.T.p./.v.r C p.X.v.4.b.Y.o.} Y.Y.%XH.*.&.] ) ^ 3.<.<.<./ Q Z A Q A P A G A H ",
"4 4 4 4 4 4 i i e 6 e r p k k F e | &X+X[ d I ~ | 2.6.X.L L 2.v.w._ L ~ X.+.2.w.,.Q Q X.&.[ [ ..#.#.9.4.o. . . .-.#.-.x.k.-.x.H.J.K.K.K.G.x.K. X^.+X#X{.Z.B.A.m.#.-.k.t.r.*.*.*.M.o.X.w.0.e.R.M.( } v.W.b.W.W.F.H.&.*.N.s.! Z / ! / X.:./ Q / ' / / ^ Q Q ^ ",
"q 4 2 4 4 4 i i p p d a k D F P 6 I Q.Q.H p I _ 4.0.0.X.P C U X.X.P P X.} U X.p.^ G G _ ] T K Y  .o.o.o. . .+.8.$.{ { #.-.=.=.r.v.q.n.^.H.n.m.^.8.k.e.8.#.e.8. . .#.r.r.*.[ [ [ r r ~ *XvX=XX.L 4.4.q.4.W.dXaX( r.*.*.7.y.1.~ R R ! / ' / / :.<./ / Q P Q Q ",
"9 4 5 1 1 4 i i 7 7 6 6 r p k k I i 6 j p ~ w.[ 0.2.o.X.X.~ P C S U X.2.P z j X.:.R R ' ] J K v S L Y Y Y U  .#.=.U Y @.r.9.=.=.v.p.R.OX`.w.2.4.V.n.q.+.e.Z.b. .L } &.7.*.[ ] ] 0.2.Z A U % > +Xb.o.B % } aX9Xx &.N.w.) T 6.u.^ Q ! :.' / Q / / R A Z Z Z Z ",
"1 1 1 1 5 1 4 4 @ 4 f f 5 & 4 i N s s G G M ,.'.>X_.,.:.:.U.,.:.Z u.d.` G ` ` G <.A m H Q Z Z / / P :.X.j B Q A ( } 4.} S x L U @.#.8.9.q.=.+.@.+.8.e.p.0.2.~ U ~ 2.8.2.~ P ~ } X.5.5.[ / O.X.) q.>X=XY.<.( } A ~ ~ } ~ U U S x 6./ H A Z Z Q 3.N N W Z N n ",
"@ & 1 1 1 1 1 1 4 f f g 2 @ # @ M q i G M M :.!.NX-XU.:.:.,.u.3.E d.d.` M G M q B y y R / A Z H Z y Q <./ 3.R.U.A A A S S ( { $.v Y { | | ~ Y Y ~ ~ X.X.<.} ~ P ( ~ / X.| X.+.2.) X.] I ~ [ [ I ( Y.W.a.( <.3.( j r z ( U C Z U / H A Q H Z A Q n n n n n n ",
"@ @ @ @ , & 1 1 1 1 5 4 4 4 4 q M q q M M m ` U.NX>XU.W W W ` W M ` 7.J s G G s Z B A <.3./ H Z Q y A Q A / 6.( ( A A B L { [ | l l v L L v l z C C C S S P S S P L C S Q X.X.X.F ~ _ F H _ _ I B ( 6.( ( 4.o.( U j j U Q r r l B m Z Q ^ Z B Z n n n N n n ",
"o # # @ @ + @ @ o o # 1 q g g i s 4 q s s s G 7.,.U.,.,.u.:.N w t G E M M G E G Q Q / <.1.! B u ,.B B Z t m B : u.( A j l v v k k l v v v v l l C C j j x C A S U S z r j L L C C J I F F ~ _ H A ( ( A A ( ( A ( ~ ~ S C S C j B y B Q Q Z B Z N n N N N W ",
"# # @ o @ @ @ @ 4 1 ; 1 1 5 1 h w w 3 q n w m W n W :.U.U.3.W n E ` ) M g s s q B V B B B B u : ^ y j V m A ( y 7.` V f a a 9 8 c c c v v v c c L S B x j j S S ( C r r j C C x v P I F F I _ L A ( A A A ( A B % S U 6 j 4.p.U A d m Z A B A Q n n n n n N ",
"o # @ @ @ @ @ @ @ h h + + & 1 4 2 , 2 3 w w t t N N N W :.^ Z n M N M M s m m M u y t u e B B u A e m V y B A B G N s s p g 9 8 i g g i 9 i g 9 L C x z j j B B l j z z C S L S k H J C D I I F A A B A A S A A % l S > 7 } 2.j R B y B B B V ( n n n n n n ",
"# # @ @ + 1 = &   o @ @ @ , i c , ; , 2 w w w - n n n n n n n w 4 , 2 q s M M J u y y u y A A y B u m B : : B : 0 q s g 9 5 8 8 9 9 9 9 9 9 i g z r r z z z z z z z z z r r y j k F F p k F D p A x A A B B A A j z r r 6 6 6 r A m y y y u n Z N n n n n n ",
"@ @ h @ h @ 1 1 @ 5 4 ; . . # 5 - 2 1 , - w - < w w w n m n w 2 M t 2 2 3 2 w q : e y 0 u B e + 0 > y d : > A B , q s g 8 & & & c c g 9 g g c c > > > 7 7 r r z 7 z z z > % % % k k F p p d d 6 A A A A B r B A S % % S L % > | B y e j y 0 0 t n w - - 2 2 ",
"& @ @ o o # @ & o o 1 4 4 4 ; @ 1 1 1 1 1 2 1 1 2 2 3 2 2 2 2 2 4 4 4 4 4 4 2 4 + = = - 2 0 w q w 2 3 w 3 3 3 3 q 9 4 4 4 i i i s s t w 4 2 2 2 w 4 2 3 3 2 0 q u 6 9 i g p g g 4 4 e 4 4 i i i u y i i i i i i f f g i 4 4 1 1 3 2 2 2 q q , O 1 2 s N V M ",
"@ o o @ o + @ @ o @ 1 1 4 1 1 @ 1 1 1 1 1 1 1 1 : 1 2 2 2 2 2 2 1 1 1 1 5 1 1 1 - ; ; ; ; : 2 2 3 3 3 2 2 3 3 3 4 4 4 4 4 i 4 i s i q w 3 2 4 w q w 3 2 2 3 w q > 2 4 4 4 4 q i 4 4 4 4 i i i e u u q i i 4 q i g i e q 4 1 1 1 q t i q w 0 0 q = 2 q s s m ",
"o o @ @ 1 @ 1 @ @ o @ @ @ @ 1 = ; % h @ @ h 1 h - ; - - - = = = & , , & & @ ; & 2 2 1 - ; - = = 2 2 3 2 2 2 2 2 1 1 2 4 1 4 4 4 q q w w 2 3 w q w 3 2 2 2 2 w 0 & 1 , & 1 1 1 1 4 4 4 4 4 4 i 4 u 3 6 4 3 9 4 4 4 5 4 1 1 1 1 1 q 0 2 = O = 2 q = ; 2 3 q i ",
"@ h 1 1 1 1 @ @ @ @ @ o o @ @ h @ @ @ @ + @ @ + = = + = = = = = @ @ @ @ @ @ @ h 2 ; ; ; = = = = , 2 2 , 2 2 2 2 1 1 1 1 4 4 4 5 w 3 4 2 w 3 q q 4 2 2 2 2 2 2 2 @ @ ; @ h ; 1 & 1 1 4 4 4 4 4 4 : 5 1 5 1 1 5 1 1 1 1 & 1 1 1 1 t 2 = O , 3 , = 2 2 ; - , 2 ",
"1 4 4 4 4 1 @ o 1 @ @ o o o @ = o @ @ @ @ @ @ # + = + + O = + = # # o @ @ o @ o = = = = = ; ; ; 2 ; - ; ; 1 - ; + & 1 1 1 1 1 1 3 2 2 2 2 3 q 0 3 2 , 2 ; 2 2 3 1 1 1 1 1 , ; ; 1 1 1 1 4 4 4 4 1 1 1 1 1 1 1 1 @ @ , , h & 1 1 N q - 3 V G q O 0 3 , = O O ",
"4 1 1 1 @ @ o o 1 1 @ o o @ @ h @ @ @ @ @ @ # @ = = = = = = = = # # @ o o @ o @ O O = = = = - ; - = ; - - = = - @ , 1 4 4 4 1 1 0 w 3 2 , 2 3 0 2 2 2 , - 2 2 3 2 1 1 1 1 & h 1 1 1 1 1 1 1 1 4 1 1 1 1 1 1 1 1 @ @ % h = , % 1 g 2 = 3 M G w $ 0 3 , + O # ",
"o o o o o o o @ 4 1 1 @ @ @ h = @ @ @ @ = h @ h = = ; = = = = = @ o @ @ @ @ @ @ - - = = = = + * = = + = = = = = @ 1 4 4 i 4 4 1 q q 3 2 2 , 1 : 2 ; 2 - ; ; 2 : 1 1 1 1 1 @ h @ 1 1 1 1 1 1 1 1 1 1 1 1 1 1 1 1 1 1 1 & & = ; @ - = = = = = O o ; - - = = = ",
". X     . . @ @ 1 1 1 1 1 1 % @ = h @ = h % @ @ ; - = = = - ; - @ @ @ @ @ @ @ o 2 2 ; = + O o $ + = = = = = + = @ 1 4 4 i 4 4 1 s q 2 2 ; ; - ; 2 2 ; - - ; ; ; 1 1 1 % @ @ + @ @ @ @ 1 1 1 1 1 1 1 1 4 1 1 1 1 1 1 1 , 1 % & + = 3 0 - $ $ - q O O + = ; 2 ",
"            . o @ 1 1 @ @ 4 1 h o o @ @ @ @ o . @ . 1 . i o 1 . o @ @ @ @ o @ & % @ @ @ 1 1 % o $ * , , = O * * < < < , * ; ; : ; 2 2 2 2 2 = = = = = = = = + = + = = = = = = * + = O O @ = , 2 * = = = ; ; ; ; 0 w , w , , , w 2 - ; ; - = + = = = = = ; ; ",
"          X . o o h @ $ . @ # . . . o @ @ @ @ @ h $ 4 . i o 1 . o @ @ h # # @ 1 , @ @ h 1 1 , # $ * * , * * * , < * * , , ; 2 : ; ; 2 2 2 ; - = = = = + * = = = = = * + = + = = = O = + * = , , - = = ; - ; 1 - 4 w , , , , , , ; ; ; - = = = = = + = - - ; "
};
